<svg width="27" height="26" viewBox="0 0 27 26" fill="none" xmlns="http://www.w3.org/2000/svg">
<path d="M26.0382 22.8316L25.9783 22.6127L25.9161 22.3835L24.8135 18.3261L24.5742 18.3159L24.3325 18.3045L25.4385 22.3755H22.514L22.5496 22.6344C22.6589 23.4175 22.4242 24.1768 21.9534 24.724C21.8636 24.8289 21.7647 24.9258 21.6588 25.0124C21.6266 25.0398 21.5932 25.066 21.5598 25.09C21.4907 25.1424 21.4194 25.1892 21.3446 25.2313C21.2215 25.3032 21.0914 25.3647 20.9544 25.4126C20.7265 25.4935 20.4894 25.5368 20.2512 25.5437C20.1729 25.546 20.0947 25.5437 20.0164 25.5391C19.9404 25.5346 19.8644 25.5254 19.7885 25.5129C19.2499 25.4274 18.7354 25.1652 18.3487 24.7537C17.7065 24.0707 17.6708 23.2363 17.6858 22.8988C17.6858 22.7997 17.6903 22.7118 17.6996 22.6297L17.7295 22.3755H8.99493L9.02486 22.6297C9.0341 22.7118 9.03983 22.7997 9.03983 22.9079C9.05363 23.2363 9.01796 24.0707 8.37569 24.7537C7.98902 25.1652 7.47455 25.4274 6.93704 25.5129C6.86116 25.5254 6.78516 25.5346 6.70915 25.5391C6.63093 25.5437 6.55271 25.546 6.47437 25.5437C6.23502 25.5368 5.9979 25.4935 5.77001 25.4126C5.6342 25.3647 5.50414 25.3043 5.38214 25.2325H5.38099C5.30618 25.1902 5.23367 25.1424 5.16462 25.09C5.13123 25.066 5.09785 25.0398 5.06563 25.0124C4.95974 24.9258 4.86076 24.8289 4.77099 24.724C4.30026 24.1768 4.06546 23.4175 4.1748 22.6344L4.21048 22.3755H1.28708L2.39313 18.3045L2.15144 18.3159L1.91089 18.3261L0.808279 22.3835L0.746134 22.6127L0.686279 22.8316H3.69255C3.61659 24.1711 4.39463 25.4115 5.61463 25.8424C6.677 26.2186 7.92226 25.9063 8.71302 25.0649C9.47374 24.2554 9.5163 23.2728 9.50028 22.8988C9.50028 22.876 9.49911 22.8532 9.49911 22.8316H17.2254V22.8886C17.2081 23.2728 17.2507 24.2554 18.0115 25.0649C18.58 25.6691 19.3811 25.9997 20.1809 25.9997C20.4952 25.9997 20.8094 25.9484 21.1098 25.8424C22.3298 25.4115 23.1078 24.1711 23.0319 22.8316H26.0382ZM2.67972 16.372L2.44608 16.3527L2.03635 17.8644L2.27804 17.8541L2.51859 17.8428L2.91336 16.3914L2.67972 16.372ZM19.8346 0L19.594 0.730765C18.8758 2.92191 18.1565 5.11308 17.4383 7.30309L17.0919 8.3599C16.216 7.95177 14.9177 7.52197 13.3709 7.54933H13.3582C11.8068 7.52426 10.5084 7.95177 9.63264 8.3599L9.28619 7.30309C8.56792 5.11308 7.84976 2.92191 7.13044 0.730765L6.88992 0L3.11363 13.8982L3.33001 13.9815L3.54638 14.0635L6.93248 1.60176C7.57124 3.55007 8.21001 5.49727 8.8476 7.44445L9.35985 9.00402L9.5992 8.88317C10.4233 8.4682 11.7481 7.97571 13.3547 8.00535H13.3743C14.9856 7.97799 16.3011 8.4682 17.1252 8.88317L17.3657 9.00402L17.8768 7.44445C18.5144 5.49727 19.1532 3.55007 19.7931 1.60176L23.1791 14.0635L23.3956 13.9815L23.6108 13.8982L19.8346 0ZM2.99277 14.3406L2.56808 15.9046L2.80172 15.924L3.03536 15.9434L3.42554 14.507L3.20916 14.4238L2.99277 14.3406ZM23.7316 14.3416L23.5165 14.4238L23.3001 14.507L23.6902 15.9434L23.9238 15.924L24.1564 15.9058L23.7316 14.3416ZM24.2784 16.3527L24.0459 16.372L23.8122 16.3914L24.207 17.8428L24.4476 17.8541L24.6881 17.8644L24.2784 16.3527Z" fill="black" fill-opacity="0.87"/>
</svg>
